<?xml version="1.0" encoding="UTF-8" standalone="no"?>
<!-- Created with Inkscape (http://www.inkscape.org/) -->

<svg
   xmlns:dc="http://purl.org/dc/elements/1.1/"
   xmlns:cc="http://creativecommons.org/ns#"
   xmlns:rdf="http://www.w3.org/1999/02/22-rdf-syntax-ns#"
   xmlns:svg="http://www.w3.org/2000/svg"
   xmlns="http://www.w3.org/2000/svg"
   xmlns:sodipodi="http://sodipodi.sourceforge.net/DTD/sodipodi-0.dtd"
   xmlns:inkscape="http://www.inkscape.org/namespaces/inkscape"
   width="83.018097mm"
   height="53.298801mm"
   viewBox="0 0 83.018097 53.298801"
   version="1.1"
   id="svg9469"
   inkscape:version="0.92.4 (5da689c313, 2019-01-14)"
   sodipodi:docname="hard-disk.svg">
  <defs
     id="defs9463" />
  <sodipodi:namedview
     id="base"
     pagecolor="#ffffff"
     bordercolor="#666666"
     borderopacity="1.0"
     inkscape:pageopacity="0.0"
     inkscape:pageshadow="2"
     inkscape:zoom="1.4"
     inkscape:cx="-51.673802"
     inkscape:cy="-90.329231"
     inkscape:document-units="mm"
     inkscape:current-layer="layer1"
     showgrid="true"
     inkscape:window-width="2560"
     inkscape:window-height="1361"
     inkscape:window-x="-9"
     inkscape:window-y="-9"
     inkscape:window-maximized="1"
     fit-margin-top="0"
     fit-margin-left="0"
     fit-margin-right="0"
     fit-margin-bottom="0">
    <inkscape:grid
       type="axonomgrid"
       id="grid10014"
       empspacing="5"
       spacingy="2.6458333"
       originx="-11.192206"
       originy="-218.05211" />
  </sodipodi:namedview>
  <metadata
     id="metadata9466">
    <rdf:RDF>
      <cc:Work
         rdf:about="">
        <dc:format>image/svg+xml</dc:format>
        <dc:type
           rdf:resource="http://purl.org/dc/dcmitype/StillImage" />
        <dc:title></dc:title>
      </cc:Work>
    </rdf:RDF>
  </metadata>
  <g
     inkscape:label="Calque 1"
     inkscape:groupmode="layer"
     id="layer1"
     transform="translate(-11.192206,-25.649089)">
    <g
       style="display:inline"
       id="g51114"
       transform="matrix(1.1111111,0,0,1.1111111,606.94549,280.87497)">
      <path
         style="fill:#808080;stroke:#4d4d4d;stroke-width:1px;stroke-linecap:butt;stroke-linejoin:miter;stroke-opacity:1"
         d="m -1670.429,320.94498 173.2051,-100 138.5641,80 -173.2051,100 z"
         id="path51082"
         inkscape:connector-curvature="0"
         transform="matrix(0.238125,0,0,0.238125,-138.16893,-282.17812)"
         sodipodi:nodetypes="ccccc" />
      <path
         style="fill:#4d4d4d;stroke:#4d4d4d;stroke-width:1px;stroke-linecap:butt;stroke-linejoin:miter;stroke-opacity:1"
         d="m -1531.8649,420.94498 v -20 l 173.2051,-100 v 20 z"
         id="path51084"
         inkscape:connector-curvature="0"
         transform="matrix(0.238125,0,0,0.238125,-138.16893,-282.17812)"
         sodipodi:nodetypes="ccccc" />
      <path
         style="fill:#666666;stroke:#4d4d4d;stroke-width:1px;stroke-linecap:butt;stroke-linejoin:miter;stroke-opacity:1"
         d="m -1497.2239,240.94499 v -20 l 138.5641,80 v 20 z"
         id="path51086"
         inkscape:connector-curvature="0"
         transform="matrix(0.238125,0,0,0.238125,-179.41339,-258.36563)"
         sodipodi:nodetypes="ccccc" />
      <g
         transform="matrix(0.0759719,0.04386241,-0.0759719,0.04386241,-495.78094,-226.73202)"
         id="g51112">
        <path
           style="fill:#bec3d1"
           inkscape:connector-curvature="0"
           d="m 16,0 h 352 c 8.83594,0 16,7.164062 16,16 v 432 c 0,8.83594 -7.16406,16 -16,16 H 16 C 7.164062,464 0,456.83594 0,448 V 16 C 0,7.164062 7.164062,0 16,0 Z m 0,0"
           id="path51088" />
        <path
           style="fill:#e38100"
           inkscape:connector-curvature="0"
           d="m 192,32 c 88.36719,0 160,71.63281 160,160 0,88.36719 -71.63281,160 -160,160 C 103.63281,352 32,280.36719 32,192 32,103.63281 103.63281,32 192,32 Z m 0,0"
           id="path51090" />
        <g
           style="fill:#9196a9"
           id="g51100">
          <path
             inkscape:connector-curvature="0"
             d="m 48,32 c 8.835938,0 16,7.164062 16,16 0,8.835938 -7.164062,16 -16,16 -8.835938,0 -16,-7.164062 -16,-16 0,-8.835938 7.164062,-16 16,-16 z m 0,0"
             id="path51092" />
          <path
             inkscape:connector-curvature="0"
             d="m 336,400 c 8.83594,0 16,7.16406 16,16 0,8.83594 -7.16406,16 -16,16 -8.83594,0 -16,-7.16406 -16,-16 0,-8.83594 7.16406,-16 16,-16 z m 0,0"
             id="path51094" />
          <path
             inkscape:connector-curvature="0"
             d="m 48,400 c 8.835938,0 16,7.16406 16,16 0,8.83594 -7.164062,16 -16,16 -8.835938,0 -16,-7.16406 -16,-16 0,-8.83594 7.164062,-16 16,-16 z m 0,0"
             id="path51096" />
          <path
             inkscape:connector-curvature="0"
             d="m 336,32 c 8.83594,0 16,7.164062 16,16 0,8.835938 -7.16406,16 -16,16 -8.83594,0 -16,-7.164062 -16,-16 0,-8.835938 7.16406,-16 16,-16 z m 0,0"
             id="path51098" />
        </g>
        <path
           style="fill:#dce1ea"
           inkscape:connector-curvature="0"
           d="m 88,344 v 40 h 56 l 80,-112 z m 0,0"
           id="path51102" />
        <path
           style="fill:#ffbc05"
           inkscape:connector-curvature="0"
           d="m 88,408 h 208 v 16 H 88 Z m 0,0"
           id="path51104" />
        <path
           style="fill:#9196a9"
           inkscape:connector-curvature="0"
           d="m 240,192 c 0,26.50781 -21.49219,48 -48,48 -26.50781,0 -48,-21.49219 -48,-48 0,-26.50781 21.49219,-48 48,-48 26.50781,0 48,21.49219 48,48 z m 0,0"
           id="path51106" />
        <path
           style="fill:#dce1ea"
           inkscape:connector-curvature="0"
           d="m 208,192 c 0,8.83594 -7.16406,16 -16,16 -8.83594,0 -16,-7.16406 -16,-16 0,-8.83594 7.16406,-16 16,-16 8.83594,0 16,7.16406 16,16 z m 0,0"
           id="path51108" />
        <path
           style="fill:#dce1ea"
           inkscape:connector-curvature="0"
           d="M 96,192 H 80 C 80.066406,130.17187 130.17187,80.066406 192,80 v 16 c -52.99609,0.05859 -95.941406,43.00391 -96,96 z m 0,0"
           id="path51110" />
      </g>
    </g>
    <path
       style="fill:none;stroke:#000000;stroke-width:1.00157475;stroke-linecap:butt;stroke-linejoin:miter;stroke-miterlimit:4;stroke-dasharray:none;stroke-opacity:1"
       d="M 216.50635,97.519698 43.30127,197.5197 v 20 l 138.56406,80 173.20508,-100 v -20 z"
       id="path4177"
       inkscape:connector-curvature="0"
       transform="scale(0.26458333)" />
  </g>
</svg>
