<?xml version="1.0" encoding="UTF-8" standalone="no"?>
<!-- Created with Inkscape (http://www.inkscape.org/) -->

<svg
   xmlns:dc="http://purl.org/dc/elements/1.1/"
   xmlns:cc="http://creativecommons.org/ns#"
   xmlns:rdf="http://www.w3.org/1999/02/22-rdf-syntax-ns#"
   xmlns:svg="http://www.w3.org/2000/svg"
   xmlns="http://www.w3.org/2000/svg"
   xmlns:sodipodi="http://sodipodi.sourceforge.net/DTD/sodipodi-0.dtd"
   xmlns:inkscape="http://www.inkscape.org/namespaces/inkscape"
   width="95.25mm"
   height="127mm"
   viewBox="0 0 95.25 127"
   version="1.1"
   id="svg159165"
   inkscape:version="0.92.4 (5da689c313, 2019-01-14)"
   sodipodi:docname="hard-disk.svg">
  <defs
     id="defs159159" />
  <sodipodi:namedview
     id="base"
     pagecolor="#ffffff"
     bordercolor="#666666"
     borderopacity="1.0"
     inkscape:pageopacity="0.0"
     inkscape:pageshadow="2"
     inkscape:zoom="0.98994949"
     inkscape:cx="16.929877"
     inkscape:cy="222.10748"
     inkscape:document-units="mm"
     inkscape:current-layer="layer1"
     showgrid="true"
     showguides="true"
     inkscape:guide-bbox="true"
     inkscape:snap-bbox="true"
     inkscape:bbox-nodes="true"
     inkscape:window-width="2560"
     inkscape:window-height="1361"
     inkscape:window-x="-9"
     inkscape:window-y="-9"
     inkscape:window-maximized="1"
     fit-margin-top="0"
     fit-margin-left="0"
     fit-margin-right="0"
     fit-margin-bottom="0">
    <inkscape:grid
       type="xygrid"
       id="grid159710"
       originx="-58.208335"
       originy="-153.45833" />
    <sodipodi:guide
       position="47.624995,-7.9375053"
       orientation="1,0"
       id="guide160499"
       inkscape:locked="false" />
  </sodipodi:namedview>
  <metadata
     id="metadata159162">
    <rdf:RDF>
      <cc:Work
         rdf:about="">
        <dc:format>image/svg+xml</dc:format>
        <dc:type
           rdf:resource="http://purl.org/dc/dcmitype/StillImage" />
        <dc:title></dc:title>
      </cc:Work>
    </rdf:RDF>
  </metadata>
  <g
     inkscape:label="Calque 1"
     inkscape:groupmode="layer"
     id="layer1"
     transform="translate(-58.208335,-16.541667)">
    <rect
       style="opacity:1;vector-effect:none;fill:#3a556a;fill-opacity:1;stroke:none;stroke-width:2;stroke-linecap:butt;stroke-linejoin:miter;stroke-miterlimit:4;stroke-dasharray:none;stroke-dashoffset:0;stroke-opacity:1"
       id="rect160002-0"
       width="360"
       height="480"
       x="-380"
       y="72.519684"
       transform="matrix(0.26458333,0,0,0.26458333,158.75,-2.6458358)"
       ry="9.9999895" />
    <g
       id="g160505"
       transform="matrix(1.1842107,0,0,1.1842107,-18.660104,-213.66945)">
      <path
         style="fill:#fcd462;fill-opacity:1"
         inkscape:connector-curvature="0"
         d="m 192,32 c 88.36719,0 160,71.63281 160,160 0,88.36719 -71.63281,160 -160,160 C 103.63281,352 32,280.36719 32,192 32,103.63281 103.63281,32 192,32 Z m 0,0"
         id="path160359-9"
         transform="matrix(0.20946182,0,0,0.20946182,64.911108,193.28333)" />
      <path
         style="fill:#9196a9"
         inkscape:connector-curvature="0"
         d="m 240,192 c 0,26.50781 -21.49219,48 -48,48 -26.50781,0 -48,-21.49219 -48,-48 0,-26.50781 21.49219,-48 48,-48 26.50781,0 48,21.49219 48,48 z m 0,0"
         id="path160375-0"
         transform="matrix(0.20946182,0,0,0.20946182,64.911108,193.28333)" />
      <path
         style="fill:#dce1ea"
         inkscape:connector-curvature="0"
         d="m 208,192 c 0,8.83594 -7.16406,16 -16,16 -8.83594,0 -16,-7.16406 -16,-16 0,-8.83594 7.16406,-16 16,-16 8.83594,0 16,7.16406 16,16 z m 0,0"
         id="path160377-1"
         transform="matrix(0.20946182,0,0,0.20946182,64.911108,193.28333)" />
      <path
         style="fill:#dce1ea"
         inkscape:connector-curvature="0"
         d="M 96,192 H 80 C 80.066406,130.17187 130.17187,80.066406 192,80 v 16 c -52.99609,0.05859 -95.941406,43.00391 -96,96 z m 0,0"
         id="path160379-2"
         transform="matrix(-0.20946182,0,0,0.20946182,145.34445,192.16621)" />
    </g>
    <circle
       style="opacity:1;vector-effect:none;fill:#e1e6e9;fill-opacity:1;stroke:none;stroke-width:2;stroke-linecap:butt;stroke-linejoin:miter;stroke-miterlimit:4;stroke-dasharray:none;stroke-dashoffset:0;stroke-opacity:1"
       id="path160507"
       cx="240"
       cy="622.51971"
       r="10"
       transform="matrix(0.39687505,0,0,0.39687471,-30.427093,-223.90608)" />
    <circle
       transform="matrix(0.39687497,0,0,0.396875,51.593752,-223.90626)"
       r="10"
       cy="622.51971"
       cx="240"
       id="circle160509"
       style="opacity:1;vector-effect:none;fill:#e1e6e9;fill-opacity:1;stroke:none;stroke-width:2;stroke-linecap:butt;stroke-linejoin:miter;stroke-miterlimit:4;stroke-dasharray:none;stroke-dashoffset:0;stroke-opacity:1" />
    <circle
       style="opacity:1;vector-effect:none;fill:#e1e6e9;fill-opacity:1;stroke:none;stroke-width:2;stroke-linecap:butt;stroke-linejoin:miter;stroke-miterlimit:4;stroke-dasharray:none;stroke-dashoffset:0;stroke-opacity:1"
       id="circle160511"
       cx="240"
       cy="622.51971"
       r="10"
       transform="matrix(0.39687497,0,0,0.39687495,51.593752,-110.1354)" />
    <circle
       transform="matrix(0.396875,0,0,0.39687495,-30.42708,-110.1354)"
       r="10"
       cy="622.51971"
       cx="240"
       id="circle160513"
       style="opacity:1;vector-effect:none;fill:#e1e6e9;fill-opacity:1;stroke:none;stroke-width:2;stroke-linecap:butt;stroke-linejoin:miter;stroke-miterlimit:4;stroke-dasharray:none;stroke-dashoffset:0;stroke-opacity:1" />
    <path
       transform="matrix(0.26458333,0,0,0.26458333,2.2333333e-6,-142.875)"
       style="fill:#e1e6e9;fill-opacity:1;stroke:none;stroke-width:1px;stroke-linecap:butt;stroke-linejoin:miter;stroke-opacity:1"
       d="m 340,972.5197 h -60 v -40 l 160,-90.00001 z"
       id="path160515"
       inkscape:connector-curvature="0"
       sodipodi:nodetypes="ccccc" />
    <rect
       transform="matrix(0.26458333,0,0,0.26458333,2.2333333e-6,-142.875)"
       style="opacity:1;vector-effect:none;fill:#e1e6e9;fill-opacity:1;stroke:none;stroke-width:2;stroke-linecap:butt;stroke-linejoin:miter;stroke-miterlimit:4;stroke-dasharray:none;stroke-dashoffset:0;stroke-opacity:1"
       id="rect166526"
       width="250"
       height="10"
       x="280"
       y="1032.5197"
       ry="5" />
  </g>
</svg>
