<?xml version="1.0" encoding="UTF-8" standalone="no"?>
<!-- Created with Inkscape (http://www.inkscape.org/) -->

<svg
   xmlns:dc="http://purl.org/dc/elements/1.1/"
   xmlns:cc="http://creativecommons.org/ns#"
   xmlns:rdf="http://www.w3.org/1999/02/22-rdf-syntax-ns#"
   xmlns:svg="http://www.w3.org/2000/svg"
   xmlns="http://www.w3.org/2000/svg"
   xmlns:sodipodi="http://sodipodi.sourceforge.net/DTD/sodipodi-0.dtd"
   xmlns:inkscape="http://www.inkscape.org/namespaces/inkscape"
   width="64.55555mm"
   height="42.715466mm"
   viewBox="0 0 64.55555 42.715466"
   version="1.1"
   id="svg9469"
   inkscape:version="0.92.4 (5da689c313, 2019-01-14)"
   sodipodi:docname="kubernetes_statefulset.svg">
  <defs
     id="defs9463" />
  <sodipodi:namedview
     id="base"
     pagecolor="#ffffff"
     bordercolor="#666666"
     borderopacity="1.0"
     inkscape:pageopacity="0.0"
     inkscape:pageshadow="2"
     inkscape:zoom="1.4"
     inkscape:cx="-112.7948"
     inkscape:cy="-155.32922"
     inkscape:document-units="mm"
     inkscape:current-layer="layer1"
     showgrid="true"
     inkscape:window-width="2560"
     inkscape:window-height="1361"
     inkscape:window-x="-9"
     inkscape:window-y="-9"
     inkscape:window-maximized="1"
     fit-margin-top="0"
     fit-margin-left="0"
     fit-margin-right="0"
     fit-margin-bottom="0">
    <inkscape:grid
       type="axonomgrid"
       id="grid10014"
       empspacing="5"
       spacingy="2.6458333"
       originx="-27.363805"
       originy="-235.25003" />
  </sodipodi:namedview>
  <metadata
     id="metadata9466">
    <rdf:RDF>
      <cc:Work
         rdf:about="">
        <dc:format>image/svg+xml</dc:format>
        <dc:type
           rdf:resource="http://purl.org/dc/dcmitype/StillImage" />
        <dc:title></dc:title>
      </cc:Work>
    </rdf:RDF>
  </metadata>
  <g
     inkscape:label="Calque 1"
     inkscape:groupmode="layer"
     id="layer1"
     transform="translate(-27.363804,-19.03451)">
    <g
       transform="translate(-572.83971,-520.56245)"
       id="g32211">
      <path
         transform="matrix(0.26458334,0,0,0.26458334,1069.8,454.8333)"
         inkscape:connector-curvature="0"
         id="path14904-9"
         d="m -1774.352,380.9449 v 19.99993 l 138.5641,79.99999 -10e-5,-19.99992 z"
         style="fill:#afc6e9;stroke:#3771c8;stroke-width:1px;stroke-linecap:butt;stroke-linejoin:miter;stroke-opacity:1"
         sodipodi:nodetypes="ccccc" />
      <path
         transform="matrix(0.26458334,0,0,0.26458334,1069.8001,454.8333)"
         inkscape:connector-curvature="0"
         id="path14906-8"
         d="m -1635.788,460.9449 h 34.641 l -3e-4,19.99992 h -34.641 z"
         style="fill:#afc6e9;stroke:#3771c8;stroke-width:1px;stroke-linecap:butt;stroke-linejoin:miter;stroke-opacity:1"
         sodipodi:nodetypes="ccccc" />
      <path
         sodipodi:nodetypes="ccccc"
         transform="matrix(0.26458334,0,0,0.26458334,1069.8001,454.8333)"
         inkscape:connector-curvature="0"
         id="path14908-5"
         d="m -1601.147,460.9449 69.2819,-40.00008 v 20 l -69.2822,40 z"
         style="fill:#2c5aa0;stroke:#3771c8;stroke-width:1px;stroke-linecap:butt;stroke-linejoin:miter;stroke-opacity:1" />
      <path
         sodipodi:nodetypes="ccccccc"
         inkscape:connector-curvature="0"
         id="path14912-7"
         d="m -25.136209,-61.603685 -18.330887,10.583342 v 5.291666 l 36.6617369,21.166662 H 2.3600764 L 20.690967,-35.145353 Z"
         style="display:inline;fill:#326ce5;fill-opacity:1;stroke:#3771c8;stroke-width:0.26499999;stroke-linecap:butt;stroke-linejoin:miter;stroke-miterlimit:4;stroke-dasharray:none;stroke-dashoffset:0;stroke-opacity:1"
         transform="translate(643.8031,601.35364)" />
      <g
         transform="matrix(0.97463695,0,0,0.99375736,50.748516,51.377327)"
         id="g32194">
        <path
           inkscape:export-ydpi="250.55"
           inkscape:export-xdpi="250.55"
           inkscape:export-filename="new.png"
           inkscape:connector-curvature="0"
           id="path3055-31"
           d="M 10.299853,1.3665541 A 1.1478764,1.1438958 0 0 0 9.8599537,1.4784021 L 3.8571986,4.3602181 A 1.1478764,1.1438958 0 0 0 3.2361176,5.136208 l -1.48092,6.47329 a 1.1478764,1.1438958 0 0 0 0.155847,0.87704 1.1478764,1.1438958 0 0 0 0.06526,0.091 l 4.154868,5.190508 a 1.1478764,1.1438958 0 0 0 0.8974561,0.430421 l 6.6629893,-0.002 a 1.1478764,1.1438958 0 0 0 0.897458,-0.429651 l 4.15333,-5.191268 a 1.1478764,1.1438958 0 0 0 0.22187,-0.96806 L 17.481053,5.1341882 A 1.1478764,1.1438958 0 0 0 16.859972,4.358198 L 10.856451,1.4779221 a 1.1478764,1.1438958 0 0 0 -0.556593,-0.111848 z"
           style="fill:#326ce5;fill-opacity:1;stroke:#ffffff;stroke-width:0;stroke-miterlimit:4;stroke-dasharray:none;stroke-opacity:1"
           transform="matrix(1.2765092,0.72281488,-1.2765092,0.72281488,596.19887,498.10637)" />
        <path
           style="fill:#eeeeee;fill-rule:nonzero;stroke:none;stroke-width:0.26458332;stroke-linecap:square;stroke-miterlimit:10"
           inkscape:connector-curvature="0"
           d="m 8.585263,16.601289 0.243912,-0.03721 q 0.02066,0.148828 0.115755,0.227376 0.09509,0.07855 0.264583,0.07855 0.1695,0 0.252182,-0.07028 0.08268,-0.07028 0.08268,-0.165364 0,-0.08268 -0.07441,-0.132292 -0.04961,-0.03307 -0.252183,-0.08268 -0.272851,-0.07028 -0.380338,-0.11989 -0.103352,-0.04961 -0.157097,-0.136425 -0.05374,-0.09095 -0.05374,-0.198438 0,-0.09508 0.04547,-0.177767 0.04548,-0.08682 0.119891,-0.14056 0.05788,-0.04134 0.157096,-0.07028 0.103352,-0.03307 0.214974,-0.03307 0.173633,0 0.301789,0.04961 0.132292,0.04961 0.194305,0.136426 0.06201,0.08268 0.08268,0.227376 l -0.239778,0.03307 q -0.01654,-0.115755 -0.09922,-0.177767 -0.07855,-0.06201 -0.21911,-0.06201 -0.173632,0 -0.248046,0.05788 -0.07028,0.05374 -0.07028,0.128157 0,0.04961 0.02894,0.08682 0.03307,0.04134 0.09509,0.06615 0.03721,0.01654 0.219107,0.06614 0.264583,0.07028 0.367938,0.115756 0.103351,0.04134 0.161229,0.128157 0.06201,0.08268 0.06201,0.21084 0,0.124023 -0.07441,0.235645 -0.07028,0.107487 -0.206706,0.169498 -0.136427,0.05788 -0.31006,0.05788 -0.285252,0 -0.434081,-0.115755 -0.148828,-0.11989 -0.190169,-0.355534 z m 2.050521,0.214974 0.03307,0.219108 q -0.103354,0.02481 -0.186037,0.02481 -0.132291,0 -0.206705,-0.04134 -0.07441,-0.04547 -0.107487,-0.115755 -0.02894,-0.07028 -0.02894,-0.293522 V 15.770339 H 9.957784 v -0.194304 h 0.181901 v -0.359668 l 0.248047,-0.148828 v 0.508496 h 0.248047 v 0.194304 h -0.248047 v 0.855762 q 0,0.103352 0.01241,0.136425 0.01241,0.02894 0.04134,0.04961 0.02894,0.01654 0.08682,0.01654 0.04134,0 0.107487,-0.0124 z m 0.142563,-0.214974 0.243911,-0.03721 q 0.02066,0.148828 0.115755,0.227376 0.09509,0.07855 0.264584,0.07855 0.1695,0 0.252182,-0.07028 0.08268,-0.07028 0.08268,-0.165364 0,-0.08268 -0.07441,-0.132292 -0.04961,-0.03307 -0.252182,-0.08268 -0.272852,-0.07028 -0.380339,-0.11989 -0.103351,-0.04961 -0.157096,-0.136425 -0.05374,-0.09095 -0.05374,-0.198438 0,-0.09508 0.04547,-0.177767 0.04548,-0.08682 0.11989,-0.14056 0.05788,-0.04134 0.157097,-0.07028 0.103351,-0.03307 0.214974,-0.03307 0.173633,0 0.301789,0.04961 0.132291,0.04961 0.194304,0.136426 0.06201,0.08268 0.08268,0.227376 l -0.239779,0.03307 q -0.01654,-0.115755 -0.09922,-0.177767 -0.07855,-0.06201 -0.219109,-0.06201 -0.173633,0 -0.248047,0.05788 -0.07028,0.05374 -0.07028,0.128157 0,0.04961 0.02894,0.08682 0.03307,0.04134 0.09509,0.06615 0.03721,0.01654 0.219107,0.06614 0.264583,0.07028 0.367937,0.115756 0.103352,0.04134 0.161229,0.128157 0.06201,0.08268 0.06201,0.21084 0,0.124023 -0.07441,0.235645 -0.07028,0.107487 -0.206705,0.169498 -0.136428,0.05788 -0.31006,0.05788 -0.285253,0 -0.434081,-0.115755 -0.148828,-0.11989 -0.190169,-0.355534 z"
           id="path992"
           transform="matrix(1.2765092,0.72281488,-1.2765092,0.72281488,596.19887,498.10637)" />
        <path
           style="fill:none;fill-rule:evenodd;stroke:#eeeeee;stroke-width:0.52914584;stroke-linecap:square;stroke-linejoin:round;stroke-miterlimit:10;stroke-dasharray:1.58743755, 1.58743755;stroke-dashoffset:3.66698074"
           inkscape:connector-curvature="0"
           d="m 8.821245,6.320002 h 6.525006 v 4.583334 H 8.821245 Z"
           id="path1234"
           transform="matrix(1.2765092,0.72281488,-1.2765092,0.72281488,596.19887,498.10637)" />
        <path
           style="fill:#326ce5;fill-opacity:1;fill-rule:evenodd;stroke:#eeeeee;stroke-width:0.52914584;stroke-linecap:square;stroke-linejoin:round;stroke-miterlimit:10;stroke-dasharray:1.58743755, 1.58743755;stroke-dashoffset:3.87863898"
           inkscape:connector-curvature="0"
           d="m 7.282497,7.731314 h 6.525006 v 4.583334 H 7.282497 Z"
           id="path1238"
           transform="matrix(1.2765092,0.72281488,-1.2765092,0.72281488,596.19887,498.10637)" />
        <path
           style="fill:#eeeeee;fill-rule:evenodd;stroke:none;stroke-width:0.26458332;stroke-linecap:square;stroke-miterlimit:10"
           inkscape:connector-curvature="0"
           d="m 5.74377,9.142625 h 6.52499 v 4.583333 H 5.74377 Z"
           id="path1240"
           transform="matrix(1.2765092,0.72281488,-1.2765092,0.72281488,596.19887,498.10637)" />
        <path
           style="fill:none;fill-rule:evenodd;stroke:#eeeeee;stroke-width:0.52916664;stroke-linecap:butt;stroke-linejoin:round;stroke-miterlimit:10"
           inkscape:connector-curvature="0"
           d="m 5.74377,9.142625 h 6.52499 v 4.583333 H 5.74377 Z"
           id="path1242"
           transform="matrix(1.2765092,0.72281488,-1.2765092,0.72281488,596.19887,498.10637)" />
        <path
           style="fill:#eeeeee;fill-rule:evenodd;stroke:none;stroke-width:0.26458332;stroke-linecap:square;stroke-miterlimit:10"
           inkscape:connector-curvature="0"
           d="m 6.276932,10.416974 v 0 c 0,0.429405 1.221888,0.777506 2.729161,0.777506 1.507274,0 2.729178,-0.348101 2.729178,-0.777506 v 2.103322 c 0,0.429405 -1.221904,0.777506 -2.729178,0.777506 -1.507273,0 -2.729161,-0.348101 -2.729161,-0.777506 z"
           id="path1244"
           transform="matrix(1.2765092,0.72281488,-1.2765092,0.72281488,596.19887,498.10637)" />
        <path
           style="fill:#f4f4f4;fill-rule:evenodd;stroke:none;stroke-width:0.26458332;stroke-linecap:square;stroke-miterlimit:10"
           inkscape:connector-curvature="0"
           d="m 6.276932,10.416974 v 0 c 0,-0.429405 1.221888,-0.777505 2.729161,-0.777505 1.507274,0 2.729178,0.3481 2.729178,0.777505 v 0 c 0,0.429405 -1.221904,0.777506 -2.729178,0.777506 -1.507273,0 -2.729161,-0.348101 -2.729161,-0.777506 z"
           id="path1246"
           transform="matrix(1.2765092,0.72281488,-1.2765092,0.72281488,596.19887,498.10637)" />
        <path
           style="fill:#000000;fill-opacity:0;fill-rule:evenodd;stroke:none;stroke-width:0.26458332;stroke-linecap:square;stroke-miterlimit:10"
           inkscape:connector-curvature="0"
           d="m 11.735278,10.416974 v 0 c 0,0.429405 -1.221906,0.777506 -2.729177,0.777506 -1.507273,0 -2.729161,-0.348101 -2.729161,-0.777506 v 0 c 0,-0.429405 1.221888,-0.777505 2.729161,-0.777505 1.507273,0 2.729177,0.3481 2.729177,0.777505 v 2.103322 c 0,0.429405 -1.221906,0.777506 -2.729177,0.777506 -1.507273,0 -2.729161,-0.348101 -2.729161,-0.777506 v -2.103322"
           id="path1248"
           transform="matrix(1.2765092,0.72281488,-1.2765092,0.72281488,596.19887,498.10637)" />
        <path
           style="fill:none;fill-rule:evenodd;stroke:#326ce5;stroke-width:0.52916664;stroke-linecap:butt;stroke-linejoin:round;stroke-miterlimit:10;stroke-opacity:1"
           inkscape:connector-curvature="0"
           d="m 11.735278,10.416974 v 0 c 0,0.429405 -1.221906,0.777506 -2.729177,0.777506 -1.507273,0 -2.729161,-0.348101 -2.729161,-0.777506 v 0 c 0,-0.429405 1.221888,-0.777505 2.729161,-0.777505 1.507273,0 2.729177,0.3481 2.729177,0.777505 v 2.103322 c 0,0.429405 -1.221906,0.777506 -2.729177,0.777506 -1.507273,0 -2.729161,-0.348101 -2.729161,-0.777506 v -2.103322"
           id="path1250"
           transform="matrix(1.2765092,0.72281488,-1.2765092,0.72281488,596.19887,498.10637)" />
      </g>
    </g>
  </g>
</svg>
