<?xml version="1.0" encoding="UTF-8" standalone="no"?>
<!-- Created with Inkscape (http://www.inkscape.org/) -->

<svg
   xmlns:dc="http://purl.org/dc/elements/1.1/"
   xmlns:cc="http://creativecommons.org/ns#"
   xmlns:rdf="http://www.w3.org/1999/02/22-rdf-syntax-ns#"
   xmlns:svg="http://www.w3.org/2000/svg"
   xmlns="http://www.w3.org/2000/svg"
   xmlns:sodipodi="http://sodipodi.sourceforge.net/DTD/sodipodi-0.dtd"
   xmlns:inkscape="http://www.inkscape.org/namespaces/inkscape"
   width="64.55555mm"
   height="42.715466mm"
   viewBox="0 0 64.55555 42.715466"
   version="1.1"
   id="svg9469"
   inkscape:version="0.92.4 (5da689c313, 2019-01-14)"
   sodipodi:docname="kubernetes_deployment.svg">
  <defs
     id="defs9463" />
  <sodipodi:namedview
     id="base"
     pagecolor="#ffffff"
     bordercolor="#666666"
     borderopacity="1.0"
     inkscape:pageopacity="0.0"
     inkscape:pageshadow="2"
     inkscape:zoom="1.4"
     inkscape:cx="-112.7948"
     inkscape:cy="-155.32922"
     inkscape:document-units="mm"
     inkscape:current-layer="layer1"
     showgrid="true"
     inkscape:window-width="2560"
     inkscape:window-height="1361"
     inkscape:window-x="-9"
     inkscape:window-y="-9"
     inkscape:window-maximized="1"
     fit-margin-top="0"
     fit-margin-left="0"
     fit-margin-right="0"
     fit-margin-bottom="0">
    <inkscape:grid
       type="axonomgrid"
       id="grid10014"
       empspacing="5"
       spacingy="2.6458333"
       originx="-27.363805"
       originy="-235.25003" />
  </sodipodi:namedview>
  <metadata
     id="metadata9466">
    <rdf:RDF>
      <cc:Work
         rdf:about="">
        <dc:format>image/svg+xml</dc:format>
        <dc:type
           rdf:resource="http://purl.org/dc/dcmitype/StillImage" />
        <dc:title></dc:title>
      </cc:Work>
    </rdf:RDF>
  </metadata>
  <g
     inkscape:label="Calque 1"
     inkscape:groupmode="layer"
     id="layer1"
     transform="translate(-27.363804,-19.03451)">
    <g
       transform="translate(-435.35818,-520.56245)"
       id="g32239">
      <path
         style="fill:#afc6e9;stroke:#3771c8;stroke-width:1px;stroke-linecap:butt;stroke-linejoin:miter;stroke-opacity:1"
         d="m -1774.352,380.9449 -10e-5,19.99996 138.564,80 10e-5,-19.99996 z"
         id="path8586"
         inkscape:connector-curvature="0"
         transform="matrix(0.26458334,0,0,0.26458334,932.3185,454.83329)"
         sodipodi:nodetypes="ccccc" />
      <path
         style="fill:#afc6e9;stroke:#3771c8;stroke-width:1px;stroke-linecap:butt;stroke-linejoin:miter;stroke-opacity:1"
         d="m -1635.788,460.9449 h 34.641 v 19.99996 h -34.6411 z"
         id="path8588"
         inkscape:connector-curvature="0"
         transform="matrix(0.26458334,0,0,0.26458334,932.3185,454.83329)"
         sodipodi:nodetypes="ccccc" />
      <path
         sodipodi:nodetypes="ccccc"
         style="fill:#2c5aa0;stroke:#3771c8;stroke-width:1px;stroke-linecap:butt;stroke-linejoin:miter;stroke-opacity:1"
         d="m -1601.147,460.9449 69.282,-40.00004 v 20 l -69.282,40 z"
         id="path8590"
         inkscape:connector-curvature="0"
         transform="matrix(0.26458334,0,0,0.26458334,932.3185,454.83329)" />
      <path
         transform="translate(506.32159,601.35363)"
         style="display:inline;fill:#326ce5;fill-opacity:1;stroke:#3771c8;stroke-width:0.26499999;stroke-linecap:butt;stroke-linejoin:miter;stroke-miterlimit:4;stroke-dasharray:none;stroke-dashoffset:0;stroke-opacity:1"
         d="m -25.13623,-61.603675 -18.330866,10.583332 v 5.291666 l 36.6617369,21.166662 H 2.3600764 L 20.690947,-35.145342 Z"
         id="path8562"
         inkscape:connector-curvature="0"
         sodipodi:nodetypes="ccccccc" />
      <g
         transform="matrix(1.4365994,0,0,1.4365994,-217.4277,-197.3983)"
         id="g28650">
        <path
           inkscape:export-ydpi="250.55"
           inkscape:export-xdpi="250.55"
           inkscape:export-filename="new.png"
           inkscape:connector-curvature="0"
           id="path3055-2"
           d="M 9.7553369,1.1328736 A 1.1478764,1.1438958 0 0 0 9.315438,1.2447216 L 3.3126829,4.1265377 a 1.1478764,1.1438958 0 0 0 -0.621081,0.7759898 l -1.48092,6.4732895 a 1.1478764,1.1438958 0 0 0 0.155847,0.87704 1.1478764,1.1438958 0 0 0 0.06526,0.091 l 4.154868,5.19051 a 1.1478764,1.1438958 0 0 0 0.8974561,0.430421 l 6.662989,-0.002 a 1.1478764,1.1438958 0 0 0 0.897458,-0.429651 l 4.15333,-5.19127 a 1.1478764,1.1438958 0 0 0 0.22187,-0.96806 L 16.936537,4.9005077 A 1.1478764,1.1438958 0 0 0 16.315456,4.1245176 L 10.311935,1.2442416 A 1.1478764,1.1438958 0 0 0 9.7553419,1.1323936 Z"
           style="fill:#326ce5;fill-opacity:1;stroke:#ffffff;stroke-width:0;stroke-miterlimit:4;stroke-dasharray:none;stroke-opacity:1"
           transform="matrix(0.866025,0.5,-0.866025,0.5,494.13044,517.19959)" />
        <path
           style="fill:#eeeeee;fill-rule:evenodd;stroke:none;stroke-width:0.26458332;stroke-linecap:square;stroke-miterlimit:10"
           inkscape:connector-curvature="0"
           d="m 10.038157,13.990722 v 0 C 7.595517,14.106267 5.518107,12.227476 5.388437,9.785553 5.258747,7.34363 7.125497,5.25538 9.566627,5.111569 c 2.44112,-0.143811 4.54014,1.71081 4.69808,4.151068 l -1.75708,0.113721 c -0.0954,-1.473818 -1.36311,-2.593935 -2.83746,-2.50708 -1.47434,0.08686 -2.60178,1.348076 -2.52346,2.822899 0.0783,1.474823 1.333,2.609539 2.80825,2.539754 z"
           id="path1222-9"
           transform="matrix(0.866025,0.5,-0.866025,0.5,494.13044,517.19959)" />
        <path
           style="fill:#eeeeee;fill-rule:evenodd;stroke:none;stroke-width:0.26458332;stroke-linecap:square;stroke-miterlimit:10"
           inkscape:connector-curvature="0"
           d="m 11.030047,9.267891 1.39745,3.420509 3.2263,-3.420509 z"
           id="path1224-4"
           transform="matrix(0.866025,0.5,-0.866025,0.5,494.13044,517.19959)" />
        <path
           style="fill:#eeeeee;fill-rule:nonzero;stroke:none;stroke-width:0.26458332;stroke-linecap:square;stroke-miterlimit:10"
           inkscape:connector-curvature="0"
           d="m 6.733217,16.805751 v -0.186035 q -0.13642,0.219108 -0.40927,0.219108 -0.17364,0 -0.32247,-0.09509 -0.14469,-0.09922 -0.22737,-0.268717 -0.0785,-0.173633 -0.0785,-0.396875 0,-0.219108 0.0744,-0.396875 0.0744,-0.181901 0.21911,-0.276986 0.1447,-0.09508 0.3266,-0.09508 0.13229,0 0.23564,0.05788 0.10335,0.05374 0.16536,0.144694 v -0.72347 h 0.24805 v 2.017448 z m -0.78135,-0.727604 q 0,0.276985 0.11576,0.417545 0.11989,0.14056 0.28112,0.14056 0.16123,0 0.27285,-0.132291 0.11576,-0.136426 0.11576,-0.405144 0,-0.30179 -0.11576,-0.44235 -0.11575,-0.14056 -0.28525,-0.14056 -0.16123,0 -0.27286,0.136426 -0.11162,0.132292 -0.11162,0.425814 z m 2.40315,0.256315 0.25632,0.03307 q -0.062,0.223242 -0.22738,0.347265 -0.16123,0.124024 -0.41754,0.124024 -0.31833,0 -0.5085,-0.198438 -0.18604,-0.198437 -0.18604,-0.553971 0,-0.367936 0.19017,-0.570508 0.19017,-0.206706 0.49196,-0.206706 0.29352,0 0.47956,0.202572 0.18604,0.198438 0.18604,0.56224 0,0.02067 0,0.06201 h -1.09141 q 0.0124,0.243913 0.13642,0.372071 0.12403,0.128157 0.30593,0.128157 0.13642,0 0.23151,-0.07028 0.0951,-0.07441 0.15296,-0.23151 z m -0.81442,-0.401009 h 0.81855 q -0.0165,-0.181901 -0.0951,-0.276986 -0.11989,-0.14056 -0.30592,-0.14056 -0.1695,0 -0.28939,0.115755 -0.11576,0.111621 -0.12816,0.301791 z m 1.38202,1.434537 v -2.025716 h 0.22738 v 0.19017 q 0.0786,-0.111621 0.17777,-0.165365 0.10335,-0.05788 0.24391,-0.05788 0.18603,0 0.33073,0.09922 0.14469,0.09508 0.21497,0.272852 0.0744,0.173633 0.0744,0.384472 0,0.223243 -0.0827,0.405144 -0.0786,0.177767 -0.23151,0.272851 -0.15296,0.09509 -0.32246,0.09509 -0.12402,0 -0.22324,-0.04961 -0.0992,-0.05374 -0.16123,-0.136425 v 0.715201 z m 0.22324,-1.285709 q 0,0.28112 0.11576,0.417545 0.11575,0.136426 0.27699,0.136426 0.16536,0 0.28112,-0.14056 0.11988,-0.14056 0.11988,-0.434082 0,-0.276985 -0.11575,-0.417545 -0.11576,-0.14056 -0.27699,-0.14056 -0.15709,0 -0.28112,0.148828 -0.11989,0.148828 -0.11989,0.429948 z m 1.34067,0.72347 v -2.017448 h 0.24805 v 2.017448 z m 0.53958,-0.731738 q 0,-0.405144 0.22324,-0.599447 0.19017,-0.165365 0.45889,-0.165365 0.30179,0 0.49196,0.198438 0.1943,0.198437 0.1943,0.545703 0,0.28112 -0.0868,0.446484 -0.0827,0.161231 -0.24392,0.252181 -0.16123,0.08682 -0.35553,0.08682 -0.30592,0 -0.49609,-0.194304 -0.18604,-0.198437 -0.18604,-0.570507 z m 0.25218,0 q 0,0.281119 0.12403,0.421679 0.12402,0.14056 0.30592,0.14056 0.18604,0 0.30592,-0.14056 0.12403,-0.14056 0.12403,-0.429948 0,-0.268717 -0.12403,-0.409277 -0.11988,-0.14056 -0.30592,-0.14056 -0.1819,0 -0.30592,0.14056 -0.12403,0.136426 -0.12403,0.417546 z m 1.39443,1.293977 -0.0248,-0.23151 q 0.0785,0.02067 0.14056,0.02067 0.0827,0 0.13229,-0.02894 0.0496,-0.02481 0.0827,-0.07441 0.0207,-0.03721 0.0744,-0.186035 0.008,-0.02067 0.0207,-0.05788 l -0.55397,-1.46761 h 0.26872 l 0.30178,0.847493 q 0.062,0.161231 0.10749,0.338998 0.0413,-0.169499 0.0992,-0.334864 l 0.31419,-0.851627 h 0.24805 l -0.5581,1.488281 q -0.0868,0.239779 -0.13643,0.330729 -0.0661,0.124023 -0.15296,0.181901 -0.0827,0.05788 -0.20258,0.05788 -0.0703,0 -0.16122,-0.03307 z"
           id="path1228-1"
           transform="matrix(0.866025,0.5,-0.866025,0.5,494.13044,517.19959)" />
      </g>
    </g>
  </g>
</svg>
