<?xml version="1.0" encoding="UTF-8" standalone="no"?>
<!-- Created with Inkscape (http://www.inkscape.org/) -->

<svg
   xmlns:dc="http://purl.org/dc/elements/1.1/"
   xmlns:cc="http://creativecommons.org/ns#"
   xmlns:rdf="http://www.w3.org/1999/02/22-rdf-syntax-ns#"
   xmlns:svg="http://www.w3.org/2000/svg"
   xmlns="http://www.w3.org/2000/svg"
   xmlns:sodipodi="http://sodipodi.sourceforge.net/DTD/sodipodi-0.dtd"
   xmlns:inkscape="http://www.inkscape.org/namespaces/inkscape"
   width="64.55555mm"
   height="42.715466mm"
   viewBox="0 0 64.55555 42.715466"
   version="1.1"
   id="svg9469"
   inkscape:version="0.92.4 (5da689c313, 2019-01-14)"
   sodipodi:docname="kubernetes_cronjob.svg">
  <defs
     id="defs9463" />
  <sodipodi:namedview
     id="base"
     pagecolor="#ffffff"
     bordercolor="#666666"
     borderopacity="1.0"
     inkscape:pageopacity="0.0"
     inkscape:pageshadow="2"
     inkscape:zoom="1.4"
     inkscape:cx="-112.7948"
     inkscape:cy="-155.32922"
     inkscape:document-units="mm"
     inkscape:current-layer="layer1"
     showgrid="true"
     inkscape:window-width="2560"
     inkscape:window-height="1361"
     inkscape:window-x="-9"
     inkscape:window-y="-9"
     inkscape:window-maximized="1"
     fit-margin-top="0"
     fit-margin-left="0"
     fit-margin-right="0"
     fit-margin-bottom="0">
    <inkscape:grid
       type="axonomgrid"
       id="grid10014"
       empspacing="5"
       spacingy="2.6458333"
       originx="-27.363805"
       originy="-235.25003" />
  </sodipodi:namedview>
  <metadata
     id="metadata9466">
    <rdf:RDF>
      <cc:Work
         rdf:about="">
        <dc:format>image/svg+xml</dc:format>
        <dc:type
           rdf:resource="http://purl.org/dc/dcmitype/StillImage" />
        <dc:title></dc:title>
      </cc:Work>
    </rdf:RDF>
  </metadata>
  <g
     inkscape:label="Calque 1"
     inkscape:groupmode="layer"
     id="layer1"
     transform="translate(-27.363804,-19.03451)">
    <g
       transform="translate(-297.87665,-520.56245)"
       id="g35694">
      <path
         sodipodi:nodetypes="ccccccc"
         inkscape:connector-curvature="0"
         id="path10187-6-9"
         d="m -25.136227,-61.603672 -18.330869,10.583329 v 5.291666 l 36.6617369,21.166662 H 2.3600764 L 20.69095,-35.145339 Z"
         style="display:inline;fill:#326ce5;fill-opacity:1;stroke:#3771c8;stroke-width:0.26499999;stroke-linecap:butt;stroke-linejoin:miter;stroke-miterlimit:4;stroke-dasharray:none;stroke-dashoffset:0;stroke-opacity:1"
         transform="translate(368.84005,601.35363)" />
      <path
         transform="matrix(0.26458334,0,0,0.26458334,794.83697,454.83328)"
         inkscape:connector-curvature="0"
         id="path7983-5"
         d="m -1774.352,380.9449 -2e-4,20 138.5641,80 10e-5,-20 z"
         style="fill:#afc6e9;stroke:#3771c8;stroke-width:1px;stroke-linecap:butt;stroke-linejoin:miter;stroke-opacity:1"
         sodipodi:nodetypes="ccccc" />
      <path
         transform="matrix(0.26458334,0,0,0.26458334,794.83697,454.83328)"
         inkscape:connector-curvature="0"
         id="path7985-0"
         d="m -1635.788,460.9449 h 34.641 l -10e-5,20 h -34.641 z"
         style="fill:#afc6e9;stroke:#3771c8;stroke-width:1px;stroke-linecap:butt;stroke-linejoin:miter;stroke-opacity:1"
         sodipodi:nodetypes="ccccc" />
      <path
         sodipodi:nodetypes="ccccc"
         transform="matrix(0.26458334,0,0,0.26458334,794.83697,454.83328)"
         inkscape:connector-curvature="0"
         id="path7987-1"
         d="m -1601.147,460.9449 69.282,-39.99999 v 20 l -69.2821,39.99999 z"
         style="fill:#2c5aa0;stroke:#3771c8;stroke-width:1px;stroke-linecap:butt;stroke-linejoin:miter;stroke-opacity:1" />
      <g
         transform="matrix(1.2441329,0.71830256,-1.2441329,0.71830256,355.015,546.79758)"
         id="layer1-3"
         inkscape:label="Calque 1">
        <path
           inkscape:export-ydpi="250.55"
           inkscape:export-xdpi="250.55"
           inkscape:export-filename="new.png"
           inkscape:connector-curvature="0"
           id="path3055-99"
           d="M 8.90606,0.3291988 A 1.1478764,1.1438958 0 0 0 8.4661611,0.4410468 L 2.463406,3.3228629 A 1.1478764,1.1438958 0 0 0 1.842325,4.0988527 L 0.36140505,10.572143 a 1.1478764,1.1438958 0 0 0 0.15584698,0.87704 1.1478764,1.1438958 0 0 0 0.06526,0.091 L 4.73738,16.730692 a 1.1478764,1.1438958 0 0 0 0.8974561,0.430421 l 6.6629899,-0.002 a 1.1478764,1.1438958 0 0 0 0.897458,-0.429651 l 4.15333,-5.191269 a 1.1478764,1.1438958 0 0 0 0.22187,-0.96806 L 16.087261,4.0968329 A 1.1478764,1.1438958 0 0 0 15.46618,3.3208428 L 9.4626581,0.4405668 A 1.1478764,1.1438958 0 0 0 8.906065,0.3287188 Z"
           style="fill:#326ce5;fill-opacity:1;stroke:#ffffff;stroke-width:0;stroke-miterlimit:4;stroke-dasharray:none;stroke-opacity:1" />
        <text
           id="text9059"
           y="16.008575"
           x="8.8756933"
           style="font-style:normal;font-weight:normal;font-size:10.58333302px;line-height:6.61458302px;font-family:Sans;letter-spacing:0px;word-spacing:0px;fill:#eeeeee;fill-opacity:1;stroke:none;stroke-width:0.26458332px;stroke-linecap:butt;stroke-linejoin:miter;stroke-opacity:1"
           xml:space="preserve"><tspan
             style="font-style:normal;font-variant:normal;font-weight:normal;font-stretch:normal;font-size:2.82222223px;font-family:Arial;-inkscape-font-specification:'Arial, Normal';font-variant-ligatures:normal;font-variant-caps:normal;font-variant-numeric:normal;font-feature-settings:normal;text-align:center;writing-mode:lr-tb;text-anchor:middle;fill:#eeeeee;fill-opacity:1;stroke-width:0.26458332px"
             y="16.008575"
             x="8.8756933"
             id="tspan9057"
             sodipodi:role="line">cronjob</tspan></text>
        <path
           sodipodi:nodetypes="cccccccsccccccccccccccccccccccscc"
           inkscape:connector-curvature="0"
           id="rect9061"
           d="m 11.11773,3.509382 v 2.142506 h 2.20296 V 3.509382 Z m 0,3.08405 v 0.546219 c 0.2587,-0.06122 0.52685,-0.09715 0.80357,-0.09715 0.49701,0 0.96978,0.106323 1.39939,0.294555 V 6.593432 Z M 4.83387,6.626502 V 8.769007 H 7.03684 V 6.626502 Z m 3.14193,0 V 8.769007 H 8.90391 C 9.2142,8.248678 9.6535,7.814391 10.17877,7.511718 V 6.626502 Z M 4.81372,9.743624 V 11.88613 H 7.01669 V 9.743624 Z m 3.15175,0 V 11.88613 H 8.67188 C 8.50253,11.475367 8.4073,11.026509 8.4073,10.556495 c 0,-0.28008 0.0371,-0.551296 0.0997,-0.812871 z"
           style="opacity:1;fill:#eeeeee;fill-opacity:1;fill-rule:nonzero;stroke:none;stroke-width:0.70899999;stroke-linecap:butt;stroke-linejoin:round;stroke-miterlimit:10;stroke-dasharray:1.418, 1.418;stroke-dashoffset:23.0452919;stroke-opacity:1" />
        <path
           id="path9087"
           d="m 12.0533,7.48882 c -1.7599,0 -3.1998,1.439912 -3.1998,3.199805 0,1.759893 1.4399,3.199805 3.1998,3.199805 1.75989,0 3.1998,-1.439912 3.1998,-3.199805 0,-1.759893 -1.43991,-3.199805 -3.1998,-3.199805 z m 1.34392,4.543723 -1.6639,-1.023938 V 9.088722 h 0.47997 v 1.6639 l 1.43992,0.863947 z"
           clip-path="url(#b)"
           inkscape:connector-curvature="0"
           style="fill:#eeeeee;fill-opacity:1;stroke-width:0.31998053" />
      </g>
    </g>
  </g>
</svg>
