<?xml version="1.0" encoding="iso-8859-1"?>
<!-- Generator: Adobe Illustrator 19.0.0, SVG Export Plug-In . SVG Version: 6.00 Build 0)  -->
<svg version="1.1" id="Capa_1" xmlns="http://www.w3.org/2000/svg" xmlns:xlink="http://www.w3.org/1999/xlink" x="0px" y="0px"
	 viewBox="0 0 468.293 468.293" style="enable-background:new 0 0 468.293 468.293;" xml:space="preserve">
<path style="fill:#3A556A;" d="M398.197,384.099v-59.02c0-3.448,2.796-6.244,6.244-6.244h4.535c3.448,0,6.244-2.796,6.244-6.244
	V201.719c0-3.448-2.795-6.244-6.244-6.244h-4.535c-3.448,0-6.244-2.795-6.244-6.244v-59.02c0-3.448,2.796-6.244,6.244-6.244h10.779
	c3.448,0,6.244-2.795,6.244-6.244V61.836l-12.488-16.116V0H59.317v45.719L46.829,61.836v55.888c0,3.448,2.795,6.244,6.244,6.244
	h10.778c3.448,0,6.244,2.795,6.244,6.244v59.02c0,3.448-2.795,6.244-6.244,6.244h-4.534c-3.448,0-6.244,2.796-6.244,6.244v110.872
	c0,3.448,2.795,6.244,6.244,6.244h4.534c3.448,0,6.244,2.796,6.244,6.244v59.02c0,3.448-2.795,6.244-6.244,6.244h-4.534
	c-3.448,0-6.244,2.795-6.244,6.244v71.706h362.146v-71.706c0-3.448-2.795-6.244-6.244-6.244h-4.535
	C400.992,390.343,398.197,387.547,398.197,384.099z"/>
<g>
	<rect x="106.146" y="36.995" style="fill:#FCD462;" width="18.981" height="63.282"/>
	<rect x="145.652" y="36.995" style="fill:#FCD462;" width="18.981" height="63.282"/>
	<rect x="185.132" y="36.995" style="fill:#FCD462;" width="18.981" height="63.282"/>
	<rect x="224.656" y="36.995" style="fill:#FCD462;" width="18.981" height="63.282"/>
	<rect x="264.155" y="36.995" style="fill:#FCD462;" width="18.981" height="63.282"/>
	<rect x="303.641" y="36.995" style="fill:#FCD462;" width="18.981" height="63.282"/>
	<rect x="343.165" y="36.995" style="fill:#FCD462;" width="18.981" height="63.282"/>
</g>
<path style="fill:#E1E6E9;" d="M327.805,431.295H140.488c-13.794,0-24.976-11.182-24.976-24.976V169.051
	c0-13.794,11.182-24.976,24.976-24.976h187.317c13.794,0,24.976,11.182,24.976,24.976V406.32
	C352.78,420.113,341.599,431.295,327.805,431.295z"/>
<g>
	<path style="fill:#3A556A;" d="M181.323,268.728c-2.573,0-4.683,0.524-6.329,1.573c-1.652,1.049-2.476,2.634-2.476,4.762
		c0,2.122,0.823,3.744,2.476,4.866c1.646,1.128,5.152,2.335,10.524,3.634c5.366,1.299,9.415,3.122,12.14,5.47
		c2.72,2.348,4.079,5.811,4.079,10.378c0,4.573-1.72,8.28-5.171,11.128c-3.445,2.848-7.963,4.268-13.561,4.268
		c-8.189,0-15.457-2.817-21.799-8.463l5.543-6.671c5.293,4.598,10.787,6.896,16.482,6.896c2.848,0,5.11-0.616,6.78-1.835
		c1.677-1.226,2.512-2.848,2.512-4.872c0-2.024-0.787-3.598-2.36-4.72c-1.573-1.128-4.287-2.146-8.128-3.073
		c-3.848-0.927-6.774-1.774-8.768-2.549c-2-0.774-3.774-1.787-5.323-3.037c-3.098-2.348-4.64-5.939-4.64-10.787
		s1.756-8.579,5.28-11.201c3.518-2.622,7.878-3.933,13.073-3.933c3.348,0,6.671,0.549,9.963,1.646
		c3.299,1.098,6.146,2.646,8.543,4.646l-4.72,6.671c-1.549-1.402-3.646-2.549-6.293-3.451
		C186.506,269.179,183.896,268.728,181.323,268.728z"/>
	<path style="fill:#3A556A;" d="M228.524,268.728c-2.573,0-4.683,0.524-6.329,1.573c-1.652,1.049-2.476,2.634-2.476,4.762
		c0,2.122,0.823,3.744,2.476,4.866c1.646,1.128,5.152,2.335,10.524,3.634c5.366,1.299,9.415,3.122,12.14,5.47
		c2.72,2.348,4.079,5.811,4.079,10.378c0,4.573-1.72,8.28-5.171,11.128c-3.445,2.848-7.963,4.268-13.561,4.268
		c-8.189,0-15.457-2.817-21.799-8.463l5.543-6.671c5.293,4.598,10.787,6.896,16.482,6.896c2.848,0,5.11-0.616,6.78-1.835
		c1.677-1.226,2.512-2.848,2.512-4.872c0-2.024-0.787-3.598-2.36-4.72c-1.573-1.128-4.287-2.146-8.128-3.073
		c-3.848-0.927-6.774-1.774-8.768-2.549c-2-0.774-3.774-1.787-5.323-3.037c-3.098-2.348-4.64-5.939-4.64-10.787
		s1.756-8.579,5.28-11.201c3.518-2.622,7.878-3.933,13.073-3.933c3.348,0,6.671,0.549,9.963,1.646
		c3.299,1.098,6.146,2.646,8.543,4.646l-4.72,6.671c-1.549-1.402-3.646-2.549-6.293-3.451
		C233.707,269.179,231.098,268.728,228.524,268.728z"/>
	<path style="fill:#3A556A;" d="M299.518,268.692c5.049,4.573,7.567,10.927,7.567,19.067c0,8.146-2.445,14.585-7.341,19.335
		c-4.896,4.744-12.39,7.116-22.476,7.116h-17.384v-52.372h17.982C287.256,261.838,294.476,264.118,299.518,268.692z
		 M298.171,287.984c0-11.988-6.866-17.982-20.604-17.982h-8.841v35.89h9.817c6.341,0,11.201-1.512,14.573-4.53
		C296.488,298.338,298.171,293.881,298.171,287.984z"/>
</g>
<g>
</g>
<g>
</g>
<g>
</g>
<g>
</g>
<g>
</g>
<g>
</g>
<g>
</g>
<g>
</g>
<g>
</g>
<g>
</g>
<g>
</g>
<g>
</g>
<g>
</g>
<g>
</g>
<g>
</g>
</svg>
