<?xml version="1.0" encoding="UTF-8" standalone="no"?>
<!-- Created with Inkscape (http://www.inkscape.org/) -->

<svg
   xmlns:dc="http://purl.org/dc/elements/1.1/"
   xmlns:cc="http://creativecommons.org/ns#"
   xmlns:rdf="http://www.w3.org/1999/02/22-rdf-syntax-ns#"
   xmlns:svg="http://www.w3.org/2000/svg"
   xmlns="http://www.w3.org/2000/svg"
   xmlns:sodipodi="http://sodipodi.sourceforge.net/DTD/sodipodi-0.dtd"
   xmlns:inkscape="http://www.inkscape.org/namespaces/inkscape"
   width="95.25mm"
   height="127mm"
   viewBox="0 0 95.25 127"
   version="1.1"
   id="svg159165"
   inkscape:version="0.92.4 (5da689c313, 2019-01-14)"
   sodipodi:docname="ssd.svg">
  <defs
     id="defs159159" />
  <sodipodi:namedview
     id="base"
     pagecolor="#ffffff"
     bordercolor="#666666"
     borderopacity="1.0"
     inkscape:pageopacity="0.0"
     inkscape:pageshadow="2"
     inkscape:zoom="0.49497475"
     inkscape:cx="279.06291"
     inkscape:cy="-331.19363"
     inkscape:document-units="mm"
     inkscape:current-layer="layer1"
     showgrid="true"
     showguides="true"
     inkscape:guide-bbox="true"
     inkscape:snap-bbox="true"
     inkscape:bbox-nodes="true"
     inkscape:window-width="2560"
     inkscape:window-height="1361"
     inkscape:window-x="-9"
     inkscape:window-y="-9"
     inkscape:window-maximized="1"
     fit-margin-top="0"
     fit-margin-left="0"
     fit-margin-right="0"
     fit-margin-bottom="0">
    <inkscape:grid
       type="xygrid"
       id="grid159710"
       originx="-58.208335"
       originy="-153.45833" />
    <sodipodi:guide
       position="47.624995,-7.9375053"
       orientation="1,0"
       id="guide160499"
       inkscape:locked="false" />
  </sodipodi:namedview>
  <metadata
     id="metadata159162">
    <rdf:RDF>
      <cc:Work
         rdf:about="">
        <dc:format>image/svg+xml</dc:format>
        <dc:type
           rdf:resource="http://purl.org/dc/dcmitype/StillImage" />
        <dc:title></dc:title>
      </cc:Work>
    </rdf:RDF>
  </metadata>
  <g
     inkscape:label="Calque 1"
     inkscape:groupmode="layer"
     id="layer1"
     transform="translate(-58.208335,-16.541667)">
    <rect
       style="opacity:1;vector-effect:none;fill:#3a556a;fill-opacity:1;stroke:none;stroke-width:2;stroke-linecap:butt;stroke-linejoin:miter;stroke-miterlimit:4;stroke-dasharray:none;stroke-dashoffset:0;stroke-opacity:1"
       id="rect160002"
       width="360"
       height="480"
       x="-380"
       y="72.519684"
       transform="matrix(0.26458333,0,0,0.26458333,158.75,-2.6458328)"
       ry="10" />
    <rect
       style="opacity:1;vector-effect:none;fill:#fcd462;fill-opacity:1;stroke:none;stroke-width:2;stroke-linecap:butt;stroke-linejoin:miter;stroke-miterlimit:4;stroke-dasharray:none;stroke-dashoffset:0;stroke-opacity:1"
       id="rect160242"
       width="20"
       height="70"
       x="160"
       y="72.519684"
       transform="matrix(0.26458333,0,0,0.26458333,55.562501,7.9295717e-7)" />
    <rect
       transform="matrix(0.26458333,0,0,0.26458333,66.145834,7.9295717e-7)"
       y="72.519684"
       x="160"
       height="70"
       width="20"
       id="rect160244"
       style="opacity:1;vector-effect:none;fill:#fcd462;fill-opacity:1;stroke:none;stroke-width:2;stroke-linecap:butt;stroke-linejoin:miter;stroke-miterlimit:4;stroke-dasharray:none;stroke-dashoffset:0;stroke-opacity:1" />
    <rect
       style="opacity:1;vector-effect:none;fill:#fcd462;fill-opacity:1;stroke:none;stroke-width:2;stroke-linecap:butt;stroke-linejoin:miter;stroke-miterlimit:4;stroke-dasharray:none;stroke-dashoffset:0;stroke-opacity:1"
       id="rect160246"
       width="20"
       height="70"
       x="160"
       y="72.519684"
       transform="matrix(0.26458333,0,0,0.26458333,76.729167,5.5962386e-7)" />
    <rect
       transform="matrix(0.26458333,0,0,0.26458333,44.979167,7.9295717e-7)"
       y="72.519684"
       x="160"
       height="70"
       width="20"
       id="rect160248"
       style="opacity:1;vector-effect:none;fill:#fcd462;fill-opacity:1;stroke:none;stroke-width:2;stroke-linecap:butt;stroke-linejoin:miter;stroke-miterlimit:4;stroke-dasharray:none;stroke-dashoffset:0;stroke-opacity:1" />
    <rect
       style="opacity:1;vector-effect:none;fill:#fcd462;fill-opacity:1;stroke:none;stroke-width:2;stroke-linecap:butt;stroke-linejoin:miter;stroke-miterlimit:4;stroke-dasharray:none;stroke-dashoffset:0;stroke-opacity:1"
       id="rect160250"
       width="20"
       height="70"
       x="160"
       y="72.519684"
       transform="matrix(0.26458333,0,0,0.26458333,34.395834,5.5962386e-7)" />
    <rect
       transform="matrix(0.26458333,0,0,0.26458333,87.312501,5.5962386e-7)"
       y="72.519684"
       x="160"
       height="70"
       width="20"
       id="rect160252"
       style="opacity:1;vector-effect:none;fill:#fcd462;fill-opacity:1;stroke:none;stroke-width:2;stroke-linecap:butt;stroke-linejoin:miter;stroke-miterlimit:4;stroke-dasharray:none;stroke-dashoffset:0;stroke-opacity:1" />
    <rect
       style="opacity:1;vector-effect:none;fill:#e1e6e9;fill-opacity:1;stroke:none;stroke-width:2;stroke-linecap:butt;stroke-linejoin:miter;stroke-miterlimit:4;stroke-dasharray:none;stroke-dashoffset:0;stroke-opacity:1"
       id="rect160257"
       width="260"
       height="310"
       x="270"
       y="192.51968"
       transform="matrix(0.26458333,0,0,0.24751343,0,8.5779588)"
       ry="40.000004" />
    <g
       id="g160289"
       transform="translate(-1.2102046,0.2500309)">
      <path
         inkscape:connector-curvature="0"
         style="fill:#3a556a"
         d="m 181.323,268.728 c -2.573,0 -4.683,0.524 -6.329,1.573 -1.652,1.049 -2.476,2.634 -2.476,4.762 0,2.122 0.823,3.744 2.476,4.866 1.646,1.128 5.152,2.335 10.524,3.634 5.366,1.299 9.415,3.122 12.14,5.47 2.72,2.348 4.079,5.811 4.079,10.378 0,4.573 -1.72,8.28 -5.171,11.128 -3.445,2.848 -7.963,4.268 -13.561,4.268 -8.189,0 -15.457,-2.817 -21.799,-8.463 l 5.543,-6.671 c 5.293,4.598 10.787,6.896 16.482,6.896 2.848,0 5.11,-0.616 6.78,-1.835 1.677,-1.226 2.512,-2.848 2.512,-4.872 0,-2.024 -0.787,-3.598 -2.36,-4.72 -1.573,-1.128 -4.287,-2.146 -8.128,-3.073 -3.848,-0.927 -6.774,-1.774 -8.768,-2.549 -2,-0.774 -3.774,-1.787 -5.323,-3.037 -3.098,-2.348 -4.64,-5.939 -4.64,-10.787 0,-4.848 1.756,-8.579 5.28,-11.201 3.518,-2.622 7.878,-3.933 13.073,-3.933 3.348,0 6.671,0.549 9.963,1.646 3.299,1.098 6.146,2.646 8.543,4.646 l -4.72,6.671 c -1.549,-1.402 -3.646,-2.549 -6.293,-3.451 -2.644,-0.895 -5.254,-1.346 -7.827,-1.346 z"
         id="path159926-5"
         transform="matrix(0.26458333,0,0,0.26458333,46.579897,19.27402)" />
      <path
         inkscape:connector-curvature="0"
         style="fill:#3a556a"
         d="m 228.524,268.728 c -2.573,0 -4.683,0.524 -6.329,1.573 -1.652,1.049 -2.476,2.634 -2.476,4.762 0,2.122 0.823,3.744 2.476,4.866 1.646,1.128 5.152,2.335 10.524,3.634 5.366,1.299 9.415,3.122 12.14,5.47 2.72,2.348 4.079,5.811 4.079,10.378 0,4.573 -1.72,8.28 -5.171,11.128 -3.445,2.848 -7.963,4.268 -13.561,4.268 -8.189,0 -15.457,-2.817 -21.799,-8.463 l 5.543,-6.671 c 5.293,4.598 10.787,6.896 16.482,6.896 2.848,0 5.11,-0.616 6.78,-1.835 1.677,-1.226 2.512,-2.848 2.512,-4.872 0,-2.024 -0.787,-3.598 -2.36,-4.72 -1.573,-1.128 -4.287,-2.146 -8.128,-3.073 -3.848,-0.927 -6.774,-1.774 -8.768,-2.549 -2,-0.774 -3.774,-1.787 -5.323,-3.037 -3.098,-2.348 -4.64,-5.939 -4.64,-10.787 0,-4.848 1.756,-8.579 5.28,-11.201 3.518,-2.622 7.878,-3.933 13.073,-3.933 3.348,0 6.671,0.549 9.963,1.646 3.299,1.098 6.146,2.646 8.543,4.646 l -4.72,6.671 c -1.549,-1.402 -3.646,-2.549 -6.293,-3.451 -2.644,-0.895 -5.253,-1.346 -7.827,-1.346 z"
         id="path159928-1"
         transform="matrix(0.26458333,0,0,0.26458333,46.579897,19.27402)" />
      <path
         inkscape:connector-curvature="0"
         style="fill:#3a556a"
         d="m 299.518,268.692 c 5.049,4.573 7.567,10.927 7.567,19.067 0,8.146 -2.445,14.585 -7.341,19.335 -4.896,4.744 -12.39,7.116 -22.476,7.116 h -17.384 v -52.372 h 17.982 c 9.39,0 16.61,2.28 21.652,6.854 z m -1.347,19.292 c 0,-11.988 -6.866,-17.982 -20.604,-17.982 h -8.841 v 35.89 h 9.817 c 6.341,0 11.201,-1.512 14.573,-4.53 3.372,-3.024 5.055,-7.481 5.055,-13.378 z"
         id="path159930-5"
         transform="matrix(0.26458333,0,0,0.26458333,46.579897,19.27402)" />
    </g>
  </g>
</svg>
